# xmcd CD database file
#
# Track frame offsets:
#	150
#	22235
#	35119
#	50069
#	64869
#	76159
#	88586
#	106118
#	120490
#	135793
#	152005
#	166303
#	180593
#	194223
#
# Disc length: 2798 seconds
#
# Revision: 2
# Processed by: cddbd v1.4PL0 Copyright (c) Steve Scherf et al.
# Submitted via: CDex 1.50Beta7
#
DISCID=b80aec0e
DTITLE=Henry Torgue and Serge Houppin - Vertiges
DYEAR=2001
DGENRE=New Age
TTITLE0=Ad Lib (Houpin)
TTITLE1=Le Concile des Zoogs(Houppin)
TTITLE2=Le Train Nu (Torgue)
TTITLE3=Le Serment d'Alice(Houppin)
TTITLE4=Ou va le Monde?(Torgue)
TTITLE5=Malacca Bay (Torgue)
TTITLE6=Aruana Song(Torgue)
TTITLE7=Plume(Houppin)
TTITLE8=Asrai(Houppin)
TTITLE9=Salle d'Esperance(Houppin)
TTITLE10=l'Angelie(Torgue)
TTITLE11=Soap(Houppin)
TTITLE12=Belvedere du Doute(Torgue)
TTITLE13=Paupieres de Sable(Torgue)
EXTD=YEAR: 2001
EXTT0=
EXTT1=
EXTT2=
EXTT3=
EXTT4=
EXTT5=
EXTT6=
EXTT7=
EXTT8=
EXTT9=
EXTT10=
EXTT11=
EXTT12=
EXTT13=
PLAYORDER=
